<svg width="80" height="80" viewBox="0 0 80 80" fill="none" xmlns="http://www.w3.org/2000/svg">
<path fill-rule="evenodd" clip-rule="evenodd" d="M55.3519 5.15026C55.3206 4.43145 54.9768 3.7622 54.4106 3.31824C53.8444 2.87429 53.1124 2.69998 52.4069 2.84108C50.7633 3.16981 45.4024 4.50061 41.1701 8.73295C39.0089 10.8941 37.8125 13.6222 37.1644 16.1059C36.8304 17.3858 36.6308 18.6427 36.5248 19.7936C36.2723 19.6837 36.0071 19.5689 35.7261 19.4491C33.4495 18.4784 30.5045 17.3449 27.153 17.3449C23.5631 17.3449 18.4692 18.8054 14.2637 22.9328C10 27.1173 6.85658 33.8334 6.85657 43.9612C6.85656 49.651 9.7021 57.9258 13.5373 64.6408C15.4765 68.036 17.7593 71.1963 20.2233 73.5246C22.6164 75.786 25.5352 77.5928 28.7144 77.511C31.0806 77.5014 33.4756 76.5724 35.3421 75.8485L35.5069 75.7846C37.6539 74.9527 39.185 74.3909 40.4697 74.3909C41.6985 74.3909 43.2411 74.9517 45.4246 75.788L45.5841 75.8491C47.4788 76.5756 49.9187 77.5111 52.262 77.5111C54.0316 77.5111 56.0802 76.5645 57.8732 75.4493C59.79 74.2571 61.8634 72.5864 63.7732 70.6021C67.5106 66.7192 71.0559 61.1689 70.9183 55.2291C70.8968 54.2987 70.3529 53.4598 69.5123 53.0605C68.3725 52.519 66.5127 51.2953 64.945 49.4977C63.3913 47.7161 62.2459 45.5173 62.1744 42.9676C62.0735 39.3683 63.0837 36.1855 64.4183 33.747C65.8019 31.2189 67.3725 29.7703 68.1031 29.3874C68.7339 29.0568 69.1908 28.4695 69.3561 27.7768C69.5214 27.0841 69.3789 26.3538 68.9654 25.774C67.8395 24.1955 65.706 22.1212 63.1896 20.4482C60.7001 18.793 57.4599 17.2787 54.1396 17.3454C53.5598 17.357 52.9911 17.3998 52.4351 17.4673C53.6503 15.6611 54.356 13.4202 54.7696 11.4531C55.2678 9.08359 55.4203 6.72254 55.3519 5.15026ZM44.6548 12.2177C46.4341 10.4384 48.5227 9.31453 50.2523 8.6221C50.177 9.20892 50.0766 9.82232 49.9469 10.4391C49.5174 12.4819 48.8423 14.1907 48.0093 15.1625C46.4357 16.9984 44.3186 19.0022 41.4791 19.7946C41.5695 19.0166 41.7146 18.1867 41.9329 17.3502C42.4428 15.3958 43.3103 13.5621 44.6548 12.2177ZM54.2386 22.2725C56.0953 22.2352 58.3199 23.1285 60.4611 24.552C61.5904 25.3028 62.5909 26.1307 63.387 26.8918C62.212 28.0696 61.061 29.6165 60.0952 31.381C58.4099 34.4605 57.1191 38.5003 57.2482 43.1058C57.3608 47.1199 59.1684 50.3717 61.2309 52.7368C62.7405 54.4677 64.4516 55.8024 65.927 56.7076C65.5129 60.3083 63.2223 64.0681 60.2226 67.1846C58.5732 68.8983 56.8141 70.3044 55.2704 71.2646C53.603 72.3017 52.5634 72.5829 52.262 72.5829C50.9454 72.5829 49.3443 72.0121 47.1873 71.1859L46.9261 71.0856C45.0718 70.3734 42.7011 69.4628 40.4697 69.4628C38.1722 69.4628 35.8104 70.38 33.9632 71.0975L33.7265 71.1893C31.5984 72.0138 30.0255 72.5829 28.6774 72.5829C28.6524 72.5829 28.6274 72.5833 28.6024 72.5841C27.367 72.6217 25.6653 71.8867 23.608 69.9427C21.6121 68.0567 19.6094 65.3354 17.8167 62.1966C14.1882 55.8436 11.7847 48.4407 11.7847 43.9612C11.7847 34.9058 14.5612 29.5458 17.7156 26.45C20.9282 23.2971 24.7504 22.273 27.153 22.273C29.4388 22.273 31.598 23.0463 33.7932 23.9823C34.0804 24.1048 34.3781 24.2344 34.6805 24.3661C35.4599 24.7055 36.2697 25.0581 37.0054 25.3339C38.0307 25.7182 39.2375 26.0865 40.4697 26.0865C41.7018 26.0865 42.9214 25.7412 43.9832 25.3666C44.7778 25.0862 45.6431 24.7284 46.4803 24.3822C46.7608 24.2662 47.0383 24.1515 47.3087 24.0415C49.5872 23.1146 51.8497 22.3205 54.2386 22.2725Z" fill="white"/>
</svg>
