<svg width="79" height="80" viewBox="0 0 79 80" fill="none" xmlns="http://www.w3.org/2000/svg">
<path d="M47.8028 17.8236C51.4168 17.8236 54.3736 14.8667 54.3736 11.2527C54.3736 7.63876 51.4168 4.68188 47.8028 4.68188C44.1888 4.68188 41.232 7.63876 41.232 11.2527C41.232 14.8667 44.1888 17.8236 47.8028 17.8236ZM35.9753 63.4908L39.2607 49.035L46.1601 55.6058V75.3183H52.7309V50.6777L45.8316 44.1069L47.8028 34.2506C52.0738 39.1788 58.6447 42.4642 65.8726 42.4642V35.8933C59.6303 35.8933 54.3736 32.6079 51.7453 28.0083L48.4599 22.7517C47.1457 20.7804 45.1745 19.4663 42.8747 19.4663C41.8891 19.4663 41.232 19.7948 40.2463 19.7948L23.1622 27.0227V42.4642H29.733V31.2938L35.6468 28.994L30.3901 55.6058L14.2916 52.3204L12.9774 58.8913L35.9753 63.4908Z" fill="white"/>
</svg>
