<svg width="57" height="57" viewBox="0 0 57 57" fill="none" xmlns="http://www.w3.org/2000/svg">
<path d="M47.5 14.25H38V9.5C38 6.8875 35.8625 4.75 33.25 4.75H23.75C21.1375 4.75 19 6.8875 19 9.5V14.25H9.5C6.8875 14.25 4.75 16.3875 4.75 19V47.5C4.75 50.1125 6.8875 52.25 9.5 52.25H47.5C50.1125 52.25 52.25 50.1125 52.25 47.5V19C52.25 16.3875 50.1125 14.25 47.5 14.25ZM23.75 9.5H33.25V14.25H23.75V9.5ZM47.5 47.5H9.5V19H47.5V47.5Z" fill="#2F2F2F"/>
<path d="M30.875 23.75H26.125V30.875H19V35.625H26.125V42.75H30.875V35.625H38V30.875H30.875V23.75Z" fill="#2F2F2F"/>
<path d="M9.5 47.5H47.5V19H9.5V47.5Z" fill="white"/>
<path d="M30.8498 24.25V30.9004H38.4504V35.5996H30.8498V43.2002H26.1496V35.5996H18.55V30.9004H26.1496V24.25H30.8498Z" fill="#FF0000" stroke="#FF0000"/>
</svg>
