<svg width="53" height="72" viewBox="0 0 53 72" fill="none" xmlns="http://www.w3.org/2000/svg">
<path d="M6.73126 38.7188H11.0854V32.7812H6.73126V38.7188ZM6.73126 50.5938H11.0854V44.6562H6.73126V50.5938ZM6.73126 26.8438H11.0854V20.9062H6.73126V26.8438ZM15.4396 38.7188H45.9188V32.7812H15.4396V38.7188ZM15.4396 50.5938H45.9188V44.6562H15.4396V50.5938ZM15.4396 20.9062V26.8438H45.9188V20.9062H15.4396ZM6.73126 38.7188H11.0854V32.7812H6.73126V38.7188ZM6.73126 50.5938H11.0854V44.6562H6.73126V50.5938ZM6.73126 26.8438H11.0854V20.9062H6.73126V26.8438ZM15.4396 38.7188H45.9188V32.7812H15.4396V38.7188ZM15.4396 50.5938H45.9188V44.6562H15.4396V50.5938ZM15.4396 20.9062V26.8438H45.9188V20.9062H15.4396Z" fill="white"/>
</svg>
