<svg width="80" height="80" viewBox="0 0 80 80" fill="none" xmlns="http://www.w3.org/2000/svg">
<path d="M29.6575 51.1794C27.8565 51.3996 26.575 53.0382 26.7952 54.8393C27.0155 56.6404 28.6541 57.9219 30.4552 57.7016C32.2563 57.4813 33.5378 55.8427 33.3175 54.0417C33.0972 52.2406 31.4586 50.9591 29.6575 51.1794Z" fill="white"/>
<path d="M18.6778 42.5925C18.4575 40.7914 19.739 39.1528 21.5401 38.9325C23.3411 38.7123 24.9797 39.9938 25.2 41.7948C25.4203 43.5959 24.1388 45.2345 22.3377 45.4548C20.5366 45.675 18.898 44.3936 18.6778 42.5925Z" fill="white"/>
<path d="M26.467 25.0904C24.6659 25.3107 23.3844 26.9493 23.6047 28.7504C23.8249 30.5515 25.4636 31.8329 27.2646 31.6127C29.0657 31.3924 30.3472 29.7538 30.1269 27.9527C29.9067 26.1517 28.268 24.8702 26.467 25.0904Z" fill="white"/>
<path d="M52.0221 31.0674C51.8018 29.2663 53.0833 27.6277 54.8844 27.4074C56.6855 27.1872 58.3241 28.4687 58.5443 30.2697C58.7646 32.0708 57.4831 33.7094 55.6821 33.9297C53.881 34.1499 52.2424 32.8684 52.0221 31.0674Z" fill="white"/>
<path d="M39.8507 36.3159C38.0496 36.5361 36.7681 38.1748 36.9884 39.9758C37.2086 41.7769 38.8473 43.0584 40.6483 42.8381C42.4494 42.6179 43.7309 40.9792 43.5106 39.1782C43.2904 37.3771 41.6518 36.0956 39.8507 36.3159Z" fill="white"/>
<path d="M37.8809 23.6945C37.6607 21.8935 38.9422 20.2548 40.7432 20.0346C42.5443 19.8143 44.1829 21.0958 44.4032 22.8969C44.6234 24.6979 43.3419 26.3366 41.5409 26.5568C39.7398 26.7771 38.1012 25.4956 37.8809 23.6945Z" fill="white"/>
<path fill-rule="evenodd" clip-rule="evenodd" d="M7.85164 39.2238C8.28037 21.5377 22.9653 7.54791 40.6513 7.97664C58.3374 8.40537 72.3272 23.0903 71.8984 40.7763C71.8713 41.8964 71.4947 42.9197 70.8011 43.7622C70.1378 44.5681 69.2788 45.0965 68.4313 45.4503C66.782 46.1388 64.7147 46.3547 62.6688 46.3686C53.8355 46.4283 46.1628 54.0262 45.6614 62.9872C45.5444 65.0778 45.1879 67.2043 44.2882 68.8752C43.8224 69.7403 43.168 70.5634 42.2514 71.1593C41.3131 71.7694 40.237 72.051 39.0988 72.0234C21.4127 71.5947 7.42291 56.9098 7.85164 39.2238ZM40.5319 12.9033C25.5668 12.5405 13.1411 24.3781 12.7783 39.3432C12.4155 54.3083 24.2531 66.734 39.2182 67.0968C39.4419 67.1022 39.5247 67.054 39.5652 67.0276C39.6276 66.987 39.7723 66.8671 39.9491 66.5388C40.3347 65.8227 40.6375 64.5609 40.741 62.7119C41.3798 51.2954 51.0601 41.5188 62.6355 41.4406C64.4822 41.4281 65.778 41.2176 66.5329 40.9025C66.7994 40.7912 66.924 40.6971 66.9718 40.6544C67.3332 25.6904 55.4962 13.2661 40.5319 12.9033Z" fill="white"/>
</svg>
