<svg width="38" height="38" viewBox="0 0 38 38" fill="none" xmlns="http://www.w3.org/2000/svg">
<path d="M30.5146 20.3827C30.5774 19.8802 30.6245 19.3777 30.6245 18.8438C30.6245 18.3098 30.5774 17.8073 30.5146 17.3048L33.828 14.7138C34.1263 14.4783 34.2048 14.0543 34.0164 13.7088L30.8758 8.27555C30.7344 8.0243 30.4675 7.88297 30.1848 7.88297C30.0906 7.88297 29.9964 7.89867 29.9179 7.93008L26.0078 9.50039C25.1912 8.87227 24.3119 8.35406 23.354 7.96148L22.7573 3.80016C22.7101 3.42328 22.3804 3.14062 21.9878 3.14062H15.7066C15.314 3.14062 14.9842 3.42328 14.9371 3.80016L14.3404 7.96148C13.3825 8.35406 12.5031 8.88797 11.6866 9.50039L7.77648 7.93008C7.68226 7.89867 7.58804 7.88297 7.49382 7.88297C7.22687 7.88297 6.95992 8.0243 6.81859 8.27555L3.67796 13.7088C3.47382 14.0543 3.56804 14.4783 3.8664 14.7138L7.17976 17.3048C7.11695 17.8073 7.06984 18.3255 7.06984 18.8438C7.06984 19.362 7.11695 19.8802 7.17976 20.3827L3.8664 22.9737C3.56804 23.2092 3.48953 23.6332 3.67796 23.9787L6.81859 29.412C6.95992 29.6632 7.22687 29.8045 7.50953 29.8045C7.60375 29.8045 7.69796 29.7888 7.77648 29.7574L11.6866 28.1871C12.5031 28.8152 13.3825 29.3334 14.3404 29.726L14.9371 33.8873C14.9842 34.2642 15.314 34.5469 15.7066 34.5469H21.9878C22.3804 34.5469 22.7101 34.2642 22.7573 33.8873L23.354 29.726C24.3119 29.3334 25.1912 28.7995 26.0078 28.1871L29.9179 29.7574C30.0121 29.7888 30.1063 29.8045 30.2005 29.8045C30.4675 29.8045 30.7344 29.6632 30.8758 29.412L34.0164 23.9787C34.2048 23.6332 34.1263 23.2092 33.828 22.9737L30.5146 20.3827ZM27.4054 17.6974C27.4682 18.1842 27.4839 18.514 27.4839 18.8438C27.4839 19.1735 27.4525 19.519 27.4054 19.9901L27.1855 21.7645L28.5831 22.8638L30.2791 24.1828L29.1798 26.0829L27.1855 25.282L25.5524 24.6225L24.1391 25.6903C23.4639 26.1928 22.8201 26.5697 22.1762 26.8366L20.5117 27.5119L20.2605 29.2863L19.9464 31.4063H17.748L17.1984 27.5119L15.5338 26.8366C14.8586 26.554 14.2305 26.1928 13.6023 25.7217L12.1734 24.6225L10.5088 25.2977L8.51453 26.0986L7.41531 24.1985L9.11125 22.8795L10.5088 21.7802L10.289 20.0058C10.2419 19.519 10.2105 19.1578 10.2105 18.8438C10.2105 18.5297 10.2419 18.1685 10.289 17.6974L10.5088 15.923L9.11125 14.8238L7.41531 13.5047L8.51453 11.6046L10.5088 12.4055L12.1419 13.065L13.5552 11.9972C14.2305 11.4947 14.8743 11.1178 15.5181 10.8509L17.1827 10.1756L17.4339 8.40117L17.748 6.28125H19.9307L20.4803 10.1756L22.1448 10.8509C22.8201 11.1335 23.4482 11.4947 24.0763 11.9658L25.5053 13.065L27.1698 12.3898L29.1641 11.5889L30.2634 13.489L28.5831 14.8238L27.1855 15.923L27.4054 17.6974ZM18.8472 12.5625C15.3768 12.5625 12.5659 15.3734 12.5659 18.8438C12.5659 22.3141 15.3768 25.125 18.8472 25.125C22.3176 25.125 25.1284 22.3141 25.1284 18.8438C25.1284 15.3734 22.3176 12.5625 18.8472 12.5625ZM18.8472 21.9844C17.1198 21.9844 15.7066 20.5711 15.7066 18.8438C15.7066 17.1164 17.1198 15.7031 18.8472 15.7031C20.5745 15.7031 21.9878 17.1164 21.9878 18.8438C21.9878 20.5711 20.5745 21.9844 18.8472 21.9844Z" fill="black"/>
</svg>
